<?xml version="1.0" ?><svg id="Layer_2" style="enable-background:new 0 0 32 32;" version="1.1" viewBox="0 0 32 32" xml:space="preserve" xmlns="http://www.w3.org/2000/svg" xmlns:xlink="http://www.w3.org/1999/xlink"><g><path d="M26,2H6C2.96997,2,0.5,4.46997,0.5,7.5v17C0.5,27.52997,2.96997,30,6,30h20c3.03003,0,5.5-2.47003,5.5-5.5v-17   C31.5,4.46997,29.03003,2,26,2z M28.5,14.32001l-4.28003-4.28003C23.65002,9.46997,22.72998,9.45001,22.14001,10l-7.38,6.85999   L11.02002,13.12c-0.57001-0.57001-1.48999-0.59003-2.08002-0.04004L3.5,18.13V7.5C3.5,6.12,4.62,5,6,5h20c1.38,0,2.5,1.12,2.5,2.5   V14.32001z"/></g></svg>